<svg width="20" height="13" viewBox="0 0 20 13" fill="none" xmlns="http://www.w3.org/2000/svg">
<path d="M3.91136e-06 0H17C17.7957 0 18.5587 0.316071 19.1213 0.87868C19.6839 1.44129 20 2.20435 20 3C20 3.79565 19.6839 4.55871 19.1213 5.12132C18.5587 5.68393 17.7957 6 17 6H15.748C15.2628 7.88715 14.1055 9.53234 12.4934 10.6268C10.8812 11.7212 8.9251 12.1897 6.99209 11.9442C5.05909 11.6987 3.28213 10.7561 1.99475 9.29345C0.707371 7.83078 -0.00192191 5.94853 3.91136e-06 4V0ZM16 4H17C17.2652 4 17.5196 3.89464 17.7071 3.70711C17.8946 3.51957 18 3.26522 18 3C18 2.73478 17.8946 2.48043 17.7071 2.29289C17.5196 2.10536 17.2652 2 17 2H16V4Z" fill="#860C0C"/>
</svg>
