<svg width="83" height="44" viewBox="0 0 83 44" fill="none" xmlns="http://www.w3.org/2000/svg">
<path d="M7.18217 25.3561L10.9713 39.4973C11.1659 40.2237 11.4797 40.6531 11.9128 40.7855C12.35 40.9334 12.8931 40.9204 13.5422 40.7465L13.6726 41.2333C13.2667 41.3255 12.7041 41.4514 11.9849 41.611C11.2853 41.7819 10.5414 41.9729 9.75318 42.1841C9.18135 42.3373 8.61932 42.4962 8.06709 42.6607C7.53445 42.8366 7.13111 42.9695 6.85706 43.0595L6.72662 42.5727C7.23663 42.436 7.5631 42.2326 7.70604 41.9624C7.86443 41.6881 7.8608 41.2418 7.69516 40.6236L4.58933 29.0325C4.40298 28.337 4.15814 27.856 3.85481 27.5894C3.54734 27.3074 3.11542 27.2409 2.55904 27.39L2.4286 26.9032C2.93558 26.817 3.42089 26.7118 3.88453 26.5876C4.51818 26.4178 5.1147 26.2331 5.67411 26.0335C6.22937 25.8185 6.73206 25.5927 7.18217 25.3561ZM10.7568 24.3238C11.545 24.1126 12.3061 24.1405 13.0403 24.4076C13.7703 24.6593 14.4367 25.1681 15.0395 25.9342C15.6382 26.6848 16.1094 27.7015 16.4531 28.9843C16.7554 30.1125 16.8891 31.1368 16.8541 32.0572C16.8346 32.9735 16.664 33.7894 16.3422 34.5051C16.0318 35.2011 15.5836 35.785 14.9978 36.2567C14.4273 36.7243 13.7326 37.0678 12.9135 37.2873C12.3107 37.4488 11.7331 37.4876 11.1806 37.4038C10.6322 37.3354 10.1749 37.1432 9.8086 36.8272L9.95967 36.4638C10.1888 36.7005 10.4631 36.8589 10.7827 36.9389C11.1178 37.0148 11.4707 37.003 11.8417 36.9036C12.5371 36.7173 13.0237 36.3385 13.3012 35.7672C13.5747 35.1804 13.6825 34.4392 13.6248 33.5437C13.5783 32.6285 13.3957 31.5759 13.0768 30.3859C12.7207 29.0568 12.3562 28.0363 11.9832 27.3246C11.6103 26.6129 11.2336 26.1341 10.853 25.8882C10.4724 25.6423 10.0734 25.5753 9.65613 25.6871C9.09976 25.8362 8.64772 26.1892 8.30003 26.7462C7.96779 27.299 7.87843 27.9855 8.03195 28.8057L7.69863 28.0254C7.74078 27.07 8.03408 26.2791 8.57854 25.6528C9.13432 25.007 9.8604 24.564 10.7568 24.3238ZM22.107 21.2825C22.6016 21.15 23.0324 21.1505 23.3995 21.284C23.7624 21.4021 24.0569 21.6048 24.2829 21.8921C24.5244 22.1752 24.6928 22.4945 24.7881 22.85C24.9413 23.4218 24.8976 23.9388 24.657 24.4008C24.4277 24.8432 24.0426 25.1369 23.5016 25.2818C22.9607 25.4268 22.5005 25.4093 22.121 25.2294C21.7528 25.0299 21.5087 24.706 21.3886 24.2578C21.2727 23.8251 21.2701 23.4448 21.3811 23.1169C21.5033 22.7694 21.6843 22.4559 21.9241 22.1763C21.6912 22.1724 21.4769 22.2382 21.2812 22.3734C21 22.4984 20.7549 22.6966 20.546 22.9679C20.333 23.2238 20.1731 23.5234 20.0663 23.8667C19.9554 24.1946 19.8914 24.543 19.8743 24.912C19.8531 25.2656 19.8839 25.5969 19.9667 25.906L21.6128 32.0493C21.8116 32.7911 22.1239 33.2458 22.5498 33.4133C22.9911 33.5766 23.5749 33.561 24.3013 33.3663L24.4318 33.8531C24.0721 33.9329 23.5503 34.0562 22.8661 34.223C22.1778 34.3743 21.4628 34.5493 20.7209 34.7481C20.1027 34.9137 19.481 35.0969 18.8556 35.2976C18.2261 35.4828 17.7511 35.6266 17.4307 35.7291L17.3003 35.2422C17.8412 35.0973 18.1888 34.8799 18.343 34.5901C18.5127 34.2962 18.5106 33.8247 18.3367 33.1756L16.38 25.8732C16.1937 25.1777 15.9488 24.6967 15.6455 24.4301C15.3535 24.1439 14.9216 24.0775 14.3497 24.2307L14.2193 23.7439C14.7263 23.6577 15.2116 23.5525 15.6752 23.4283C16.3243 23.2544 16.9209 23.0697 17.4648 22.8742C18.0201 22.6592 18.5228 22.4334 18.9729 22.1968L19.5506 24.3528C19.6242 23.8858 19.77 23.4409 19.988 23.0181C20.206 22.5952 20.4911 22.2373 20.8432 21.9441C21.1912 21.6356 21.6125 21.415 22.107 21.2825ZM32.5438 18.7096L29.8976 32.0159L31.1031 31.6929C31.7058 31.5314 32.2368 31.2566 32.696 30.8685C33.1665 30.4608 33.4987 29.908 33.6927 29.21C33.9021 28.5079 33.9047 27.621 33.7003 26.5494L34.1872 26.4189C34.4895 27.5471 34.7457 28.4724 34.9558 29.1946C35.1617 29.9014 35.3464 30.4979 35.5098 30.9842C34.8061 31.1396 34.0735 31.3111 33.312 31.4985C32.5506 31.686 31.7913 31.8812 31.034 32.0841C30.2458 32.2953 29.4365 32.5204 28.6061 32.7595C27.7798 33.014 26.9921 33.2582 26.2431 33.492L28.8894 20.1857L27.5912 20.5336C26.973 20.6992 26.4363 20.9838 25.9813 21.3873C25.5375 21.7713 25.2285 22.3179 25.0541 23.0272C24.8911 23.7169 24.9019 24.5919 25.0866 25.6522L24.5998 25.7827C24.2934 24.639 24.0372 23.7138 23.8312 23.007C23.6253 22.3002 23.4406 21.7037 23.2772 21.2174C23.9964 21.0578 24.7367 20.8843 25.4981 20.6969C26.2595 20.5094 27.0112 20.3163 27.753 20.1175C28.5567 19.9022 29.366 19.677 30.1809 19.4421C31.0072 19.1876 31.7948 18.9434 32.5438 18.7096ZM37.51 17.1553C38.87 16.7909 40.044 16.907 41.0321 17.5036C42.0202 18.1002 42.7586 19.3103 43.2472 21.134L35.6203 23.1776L35.4559 22.7495L40.2082 21.4762C40.0208 20.7147 39.7881 20.0317 39.5101 19.427C39.228 18.8069 38.9192 18.3347 38.5839 18.0105C38.2485 17.6862 37.8877 17.5759 37.5013 17.6794C36.9604 17.8243 36.5879 18.2886 36.3837 19.0721C36.195 19.8515 36.2732 21.0397 36.6183 22.6368L36.7251 22.7573C36.7594 22.9469 36.7957 23.1442 36.8341 23.3493C36.8879 23.5502 36.9438 23.7588 37.0018 23.9752C37.2875 25.0416 37.6662 25.8677 38.1379 26.4536C38.6251 27.0353 39.1419 27.4186 39.6884 27.6035C40.2307 27.7729 40.7414 27.7934 41.2205 27.665C41.5451 27.5781 41.8649 27.4427 42.1801 27.2588C42.5066 27.0554 42.8123 26.7747 43.0974 26.4167C43.3783 26.0433 43.6071 25.5679 43.7836 24.9905L44.2382 25.0178C44.2101 25.6548 44.0697 26.3053 43.8169 26.9693C43.5642 27.6334 43.1763 28.2259 42.6534 28.7471C42.1304 29.2682 41.4362 29.6447 40.5708 29.8766C39.5198 30.1582 38.5325 30.1825 37.6088 29.9497C36.685 29.7168 35.8692 29.2066 35.1612 28.419C34.4687 27.6273 33.934 26.5282 33.5572 25.1218C33.172 23.6845 33.0907 22.4226 33.313 21.336C33.5508 20.2453 34.0326 19.3542 34.7584 18.6628C35.4955 17.9518 36.4127 17.4493 37.51 17.1553ZM45.7561 15.0203L49.5452 29.1614C49.7399 29.8878 50.0537 30.3172 50.4867 30.4497C50.9239 30.5975 51.467 30.5845 52.1161 30.4106L52.2466 30.8974C51.8406 30.9896 51.278 31.1155 50.5588 31.2751C49.8592 31.446 49.1153 31.6371 48.3271 31.8483C47.7553 32.0015 47.1933 32.1604 46.641 32.3249C46.1084 32.5007 45.7051 32.6337 45.431 32.7237L45.3006 32.2368C45.8106 32.1002 46.137 31.8967 46.28 31.6265C46.4384 31.3522 46.4348 30.9059 46.2691 30.2877L43.1633 18.6966C42.9769 18.0012 42.7321 17.5201 42.4288 17.2536C42.1213 16.9715 41.6894 16.9051 41.133 17.0541L41.0025 16.5673C41.5095 16.4812 41.9948 16.376 42.4585 16.2517C43.0921 16.0819 43.6887 15.8973 44.2481 15.6977C44.8033 15.4826 45.306 15.2568 45.7561 15.0203ZM49.3307 13.9879C50.1189 13.7767 50.8801 13.8047 51.6142 14.0718C52.3442 14.3234 53.0106 14.8323 53.6135 15.5983C54.2121 16.349 54.6833 17.3657 55.027 18.6484C55.3293 19.7766 55.463 20.8009 55.428 21.7213C55.4085 22.6376 55.2379 23.4536 54.9162 24.1692C54.6057 24.8653 54.1576 25.4492 53.5717 25.9209C53.0013 26.3885 52.3065 26.732 51.4874 26.9515C50.8847 27.113 50.3071 27.1518 49.7545 27.0679C49.2061 26.9995 48.7488 26.8073 48.3826 26.4914L48.5336 26.1279C48.7627 26.3647 49.0371 26.5231 49.3566 26.6031C49.6917 26.6789 50.0447 26.6672 50.4156 26.5678C51.1111 26.3814 51.5976 26.0026 51.8752 25.4313C52.1486 24.8445 52.2565 24.1034 52.1987 23.2078C52.1523 22.2926 51.9696 21.24 51.6508 20.05C51.2946 18.7209 50.9301 17.7005 50.5572 16.9887C50.1843 16.277 49.8075 15.7982 49.4269 15.5523C49.0463 15.3065 48.6474 15.2394 48.2301 15.3512C47.6737 15.5003 47.2217 15.8534 46.874 16.4103C46.5417 16.9631 46.4524 17.6497 46.6059 18.4699L46.2726 17.6896C46.3147 16.7341 46.608 15.9432 47.1525 15.317C47.7083 14.6711 48.4343 14.2281 49.3307 13.9879ZM54.2043 6.61947C54.8534 6.44555 55.4069 6.47117 55.8648 6.69633C56.334 6.9019 56.6431 7.28287 56.7922 7.83924C56.9413 8.39562 56.8661 8.88784 56.5667 9.31592C56.2786 9.7244 55.81 10.0156 55.1609 10.1895C54.5118 10.3635 53.9527 10.3476 53.4835 10.1421C53.0256 9.91691 52.7221 9.52614 52.573 8.96977C52.424 8.41339 52.4935 7.93097 52.7816 7.52248C53.081 7.0944 53.5552 6.7934 54.2043 6.61947ZM57.5468 11.861L60.2489 21.9452C60.4228 22.5943 60.649 23.0058 60.9275 23.1797C61.2214 23.3494 61.6389 23.3618 62.1798 23.2168L62.3102 23.7036C62.0279 23.7627 61.591 23.8632 60.9996 24.0051C60.404 24.1316 59.8049 24.2756 59.2021 24.4371C58.5994 24.5986 57.9931 24.7776 57.3832 24.9741C56.7691 25.1552 56.3096 25.2949 56.0047 25.3932L55.8742 24.9064C56.4151 24.7614 56.7627 24.5441 56.917 24.2543C57.0867 23.9603 57.0846 23.4888 56.9106 22.8397L54.954 15.5373C54.7676 14.8419 54.5228 14.3608 54.2194 14.0943C53.9274 13.8081 53.4955 13.7416 52.9237 13.8948L52.7932 13.408C53.3002 13.3219 53.7855 13.2167 54.2492 13.0924C54.8983 12.9185 55.4948 12.7338 56.0387 12.5384C56.594 12.3233 57.0967 12.0975 57.5468 11.861ZM62.4064 10.4843C63.0555 10.3104 63.6424 10.2442 64.167 10.2859C64.703 10.3079 65.0999 10.3672 65.3576 10.4638C65.9784 10.6784 66.2408 10.3596 66.145 9.50741L66.6318 9.37697C66.7168 9.81799 66.8365 10.3574 66.9908 10.9952C67.141 11.6175 67.3548 12.4464 67.6323 13.4819L67.1455 13.6123C66.915 13.0612 66.617 12.5364 66.2516 12.0381C65.8861 11.5397 65.4471 11.1686 64.9346 10.925C64.4375 10.6772 63.8644 10.6403 63.2153 10.8142C62.7672 10.9343 62.4237 11.1671 62.185 11.5126C61.9422 11.8427 61.8849 12.2473 62.0133 12.7264C62.1376 13.1901 62.3864 13.5624 62.7598 13.8433C63.1291 14.1088 63.5736 14.3458 64.0933 14.5544C64.6243 14.7434 65.177 14.9514 65.7513 15.1785C66.3649 15.4282 66.932 15.6904 67.4528 15.9649C67.9695 16.224 68.4115 16.5446 68.7789 16.9265C69.1463 17.3084 69.4128 17.8085 69.5784 18.4267C69.7648 19.1222 69.7274 19.7865 69.4664 20.4196C69.2012 21.0373 68.7736 21.5742 68.1836 22.0305C67.6091 22.4826 66.92 22.8163 66.1163 23.0317C65.6527 23.1559 65.223 23.2213 64.8272 23.228C64.4469 23.2305 64.1067 23.1974 63.8067 23.1287C63.581 23.0898 63.365 23.0566 63.1589 23.029C62.964 22.9818 62.781 22.948 62.6099 22.9276C62.4429 22.9227 62.3183 23.014 62.2361 23.2017C62.1693 23.3853 62.1423 23.6244 62.155 23.9192L61.6682 24.0496C61.5666 23.5468 61.4283 22.9378 61.2532 22.2227C61.0782 21.5077 60.8333 20.5629 60.5186 19.3883L61.0054 19.2579C61.3218 20.0676 61.6906 20.7639 62.1118 21.3467C62.5288 21.9141 62.9957 22.3273 63.5123 22.5864C64.0403 22.8259 64.6289 22.8587 65.278 22.6848C65.5407 22.6144 65.7812 22.492 65.9995 22.3176C66.2178 22.1431 66.3711 21.9115 66.4594 21.6229C66.5631 21.33 66.5632 20.9904 66.4597 20.6041C66.2775 19.924 65.9022 19.42 65.334 19.0919C64.7811 18.7597 64.0943 18.4219 63.2735 18.0787C62.6713 17.8093 62.0943 17.5416 61.5426 17.2753C61.0022 16.9894 60.5308 16.6519 60.1284 16.2628C59.7218 15.8582 59.4378 15.3546 59.2763 14.7519C59.0899 14.0564 59.118 13.4194 59.3606 12.8409C59.6031 12.2624 59.9947 11.7765 60.5353 11.3832C61.0872 10.9703 61.7109 10.6707 62.4064 10.4843ZM77.7453 6.72212L77.8695 7.18577C77.5966 7.34172 77.3681 7.60172 77.184 7.96576C76.9958 8.31435 76.8692 8.86177 76.8041 9.60804L75.9953 19.664L75.5723 21.5166L67.4438 11.3956C67.0196 10.8632 66.6596 10.5704 66.3637 10.5172C66.0792 10.4444 65.8441 10.4328 65.6587 10.4825L65.5282 9.99567C66.0507 9.90538 66.5865 9.80321 67.1357 9.68919C67.6962 9.55556 68.2315 9.42042 68.7415 9.28376C69.3751 9.11398 69.9505 8.94323 70.4677 8.77152C70.9849 8.59982 71.4712 8.43639 71.9265 8.28125L72.057 8.76808C71.7479 8.8509 71.4605 8.95276 71.1947 9.07367C70.9402 9.17497 70.7838 9.33285 70.7253 9.5473C70.6781 9.74215 70.8052 10.0311 71.1066 10.4141L75.9159 16.6789L75.7446 16.8739L76.1742 11.6155C76.2443 10.7022 76.1857 9.98909 75.9985 9.47605C75.8072 8.94756 75.5296 8.59129 75.1655 8.40723C74.7973 8.20773 74.3541 8.16085 73.8358 8.2666L73.7116 7.80295C73.963 7.75215 74.2221 7.69928 74.489 7.64433C74.7517 7.57393 75.0165 7.51126 75.2834 7.45632C75.5461 7.38592 75.778 7.3238 75.9789 7.26997C76.288 7.18715 76.6105 7.09246 76.9463 6.9859C77.2822 6.87934 77.5485 6.79141 77.7453 6.72212ZM75.9953 19.664L75.779 22.3806C75.728 22.8084 75.6527 23.1764 75.553 23.4847C75.473 23.8043 75.3554 24.076 75.2 24.2998C75.0333 24.5433 74.7924 24.7569 74.4772 24.9407C74.1662 25.14 73.7866 25.2997 73.3384 25.4198C72.9675 25.5192 72.5646 25.5609 72.1296 25.5449C71.7101 25.5248 71.3317 25.4109 70.9945 25.2031C70.6572 24.9953 70.4306 24.675 70.3146 24.2423C70.1863 23.7632 70.2527 23.3313 70.5141 22.9465C70.7795 22.5772 71.1905 22.3181 71.7468 22.169C72.2568 22.0323 72.7072 22.0441 73.0981 22.2045C73.4889 22.3648 73.7485 22.6845 73.8768 23.1636C73.9596 23.4727 73.9379 23.7932 73.8115 24.1253C73.7006 24.4531 73.4706 24.7384 73.1215 24.981C73.2029 24.9758 73.2977 24.9586 73.4059 24.9297C73.5141 24.9007 73.5991 24.8779 73.6609 24.8613C74.1245 24.7371 74.4947 24.4805 74.7715 24.0916C75.0483 23.7028 75.2177 23.1604 75.2797 22.4647L75.4513 19.8595L75.9953 19.664Z" fill="#399685"/>
</svg>
