<svg width="34" height="30" viewBox="0 0 34 30" fill="none" xmlns="http://www.w3.org/2000/svg">
<path d="M20.25 8V4.5C20.25 3.57174 19.8813 2.6815 19.2249 2.02513C18.5685 1.36875 17.6783 1 16.75 1H4.5C3.57174 1 2.6815 1.36875 2.02513 2.02513C1.36875 2.6815 1 3.57174 1 4.5V25.5C1 26.4283 1.36875 27.3185 2.02513 27.9749C2.6815 28.6313 3.57174 29 4.5 29H16.75C17.6783 29 18.5685 28.6313 19.2249 27.9749C19.8813 27.3185 20.25 26.4283 20.25 25.5V22M32.5 15H8L27.25 9.75L32.5 15ZM32.5 15L27.25 20.25" stroke="white" stroke-width="2" stroke-linecap="round" stroke-linejoin="round"/>
</svg>
