<svg width="54" height="29" viewBox="0 0 54 29" fill="none" xmlns="http://www.w3.org/2000/svg">
<path d="M3.94744 7.90909C1.76733 7.90909 3.51924e-06 6.13858 3.41997e-06 3.95455C3.32071e-06 1.77051 1.76733 5.61824e-07 3.94744 4.70176e-07L15.1319 0C17.312 -9.16485e-08 19.0793 1.77051 19.0793 3.95454C19.0793 6.13858 17.312 7.90909 15.1319 7.90909L3.94744 7.90909Z" fill="#C4354A"/>
<path d="M8.55279 29C3.82921 29 1.89801e-06 25.1639 1.46786e-06 20.4318L0 4.28409C-2.15077e-07 1.91805 1.91461 5.6568e-07 4.27639 3.67108e-07C6.63818 1.68536e-07 8.55279 1.91805 8.55279 4.28409L8.55279 29Z" fill="#F94C66"/>
<path d="M14.8266 24.534C13.8581 24.534 12.988 24.3653 12.216 24.0278C11.4581 23.6763 10.8616 23.1982 10.4265 22.5936C9.99141 21.975 9.76684 21.2649 9.75281 20.4635H11.795C11.8651 21.1524 12.1458 21.7359 12.6371 22.214C13.1423 22.678 13.8722 22.91 14.8266 22.91C15.7389 22.91 16.4547 22.685 16.974 22.2351C17.5073 21.7711 17.774 21.1805 17.774 20.4635C17.774 19.901 17.6196 19.4441 17.3108 19.0925C17.0021 18.741 16.6161 18.4739 16.1529 18.2911C15.6898 18.1083 15.0652 17.9115 14.2792 17.7005C13.3108 17.4475 12.5318 17.1944 11.9423 16.9413C11.3669 16.6882 10.8686 16.2945 10.4476 15.7602C10.0405 15.2118 9.83702 14.4807 9.83702 13.5667C9.83702 12.7653 10.0405 12.0552 10.4476 11.4365C10.8546 10.8179 11.423 10.3398 12.1529 10.0024C12.8967 9.66491 13.7459 9.49618 14.7003 9.49618C16.0757 9.49618 17.1986 9.84067 18.0688 10.5296C18.953 11.2186 19.4512 12.1325 19.5635 13.2715H17.4582C17.388 12.709 17.0933 12.2169 16.574 11.7951C16.0547 11.3592 15.3669 11.1413 14.5108 11.1413C13.7108 11.1413 13.0581 11.3522 12.5529 11.774C12.0476 12.1818 11.795 12.7582 11.795 13.5035C11.795 14.0378 11.9423 14.4736 12.2371 14.8111C12.5458 15.1485 12.9178 15.4087 13.3529 15.5915C13.802 15.7602 14.4266 15.957 15.2266 16.182C16.195 16.4492 16.974 16.7163 17.5635 16.9835C18.153 17.2365 18.6582 17.6373 19.0793 18.1856C19.5004 18.7199 19.7109 19.4511 19.7109 20.3791C19.7109 21.0962 19.5214 21.7711 19.1425 22.4038C18.7635 23.0365 18.2021 23.5498 17.4582 23.9435C16.7143 24.3372 15.8371 24.534 14.8266 24.534Z" fill="#313131"/>
<path d="M21.8354 10.9515C21.4705 10.9515 21.1617 10.8249 20.9091 10.5718C20.6565 10.3187 20.5301 10.0094 20.5301 9.64382C20.5301 9.27824 20.6565 8.96891 20.9091 8.71582C21.1617 8.46273 21.4705 8.33618 21.8354 8.33618C22.1863 8.33618 22.4811 8.46273 22.7197 8.71582C22.9723 8.96891 23.0986 9.27824 23.0986 9.64382C23.0986 10.0094 22.9723 10.3187 22.7197 10.5718C22.4811 10.8249 22.1863 10.9515 21.8354 10.9515ZM22.7618 12.8285V24.3864H20.8459V12.8285H22.7618Z" fill="#313131"/>
<path d="M29.3744 24.5762C28.2937 24.5762 27.3112 24.3301 26.427 23.838C25.5568 23.3459 24.869 22.6499 24.3638 21.75C23.8725 20.8361 23.6269 19.7815 23.6269 18.5864C23.6269 17.4053 23.8795 16.3648 24.3848 15.4649C24.9041 14.551 25.6059 13.855 26.4901 13.3769C27.3744 12.8848 28.3638 12.6387 29.4586 12.6387C30.5534 12.6387 31.5428 12.8848 32.4271 13.3769C33.3113 13.855 34.006 14.5439 34.5113 15.4438C35.0306 16.3437 35.2903 17.3912 35.2903 18.5864C35.2903 19.7815 35.0236 20.8361 34.4903 21.75C33.971 22.6499 33.2622 23.3459 32.3639 23.838C31.4657 24.3301 30.4691 24.5762 29.3744 24.5762ZM29.3744 22.8889C30.0621 22.8889 30.7077 22.7272 31.3113 22.4038C31.9148 22.0804 32.399 21.5953 32.7639 20.9485C33.1429 20.3018 33.3324 19.5144 33.3324 18.5864C33.3324 17.6584 33.1499 16.871 32.785 16.2242C32.4201 15.5774 31.9429 15.0993 31.3534 14.79C30.7639 14.4666 30.1253 14.3049 29.4375 14.3049C28.7358 14.3049 28.0902 14.4666 27.5007 14.79C26.9252 15.0993 26.4621 15.5774 26.1112 16.2242C25.7603 16.871 25.5848 17.6584 25.5848 18.5864C25.5848 19.5284 25.7533 20.3228 26.0901 20.9696C26.441 21.6164 26.9042 22.1015 27.4796 22.4249C28.0551 22.7342 28.6867 22.8889 29.3744 22.8889Z" fill="#313131"/>
<path d="M38.0408 14.7056C38.3777 14.0448 38.8549 13.5316 39.4724 13.166C40.104 12.8004 40.8689 12.6176 41.7672 12.6176V14.6002H41.2619C39.1145 14.6002 38.0408 15.7672 38.0408 18.1013V24.3864H36.125V12.8285H38.0408V14.7056Z" fill="#313131"/>
<path d="M44.2103 14.9798C44.6033 14.2908 45.1788 13.7284 45.9367 13.2925C46.6946 12.8567 47.5578 12.6387 48.5262 12.6387C49.5648 12.6387 50.4982 12.8848 51.3263 13.3769C52.1544 13.869 52.807 14.565 53.2842 15.4649C53.7614 16.3507 54 17.3842 54 18.5653C54 19.7323 53.7614 20.7728 53.2842 21.6867C52.807 22.6007 52.1473 23.3107 51.3052 23.8169C50.4771 24.3231 49.5508 24.5762 48.5262 24.5762C47.5297 24.5762 46.6525 24.3582 45.8946 23.9224C45.1507 23.4865 44.5893 22.9311 44.2103 22.2562V24.3864H42.2945V8.77909H44.2103V14.9798ZM52.0421 18.5653C52.0421 17.6935 51.8666 16.9342 51.5157 16.2875C51.1649 15.6407 50.6877 15.1485 50.0841 14.8111C49.4947 14.4736 48.842 14.3049 48.1262 14.3049C47.4244 14.3049 46.7718 14.4807 46.1683 14.8322C45.5788 15.1696 45.1016 15.6688 44.7367 16.3296C44.3858 16.9764 44.2103 17.7287 44.2103 18.5864C44.2103 19.4581 44.3858 20.2244 44.7367 20.8853C45.1016 21.5321 45.5788 22.0312 46.1683 22.3827C46.7718 22.7202 47.4244 22.8889 48.1262 22.8889C48.842 22.8889 49.4947 22.7202 50.0841 22.3827C50.6877 22.0312 51.1649 21.5321 51.5157 20.8853C51.8666 20.2244 52.0421 19.4511 52.0421 18.5653Z" fill="#313131"/>
</svg>
